HIERARCHY
ROOT Hips
{
	OFFSET 0.000000 0.000000 0.000000
	CHANNELS 6 Xposition Yposition Zposition Zrotation Yrotation Xrotation 
	JOINT LHipJoint
	{
		OFFSET 0.000000 0.000000 0.000000
		CHANNELS 3 Zrotation Yrotation Xrotation
		JOINT LeftUpLeg
		{
			OFFSET 1.363060 -1.794630 0.839290
			CHANNELS 3 Zrotation Yrotation Xrotation
			JOINT LeftLeg
			{
				OFFSET 2.448110 -6.726130 0.000000
				CHANNELS 3 Zrotation Yrotation Xrotation
				JOINT LeftFoot
				{
					OFFSET 2.562200 -7.039590 0.000000
					CHANNELS 3 Zrotation Yrotation Xrotation
					JOINT LeftToeBase
					{
						OFFSET 0.157640 -0.433110 2.322550
						CHANNELS 3 Zrotation Yrotation Xrotation
						End Site
						{
							OFFSET 0.000000 0.000000 0.000000
						}
					}
				}
			}
		}
	}
	JOINT RHipJoint
	{
		OFFSET 0.000000 0.000000 0.000000
		CHANNELS 3 Zrotation Yrotation Xrotation
		JOINT RightUpLeg
		{
			OFFSET -1.305520 -1.794630 0.839290
			CHANNELS 3 Zrotation Yrotation Xrotation
			JOINT RightLeg
			{
				OFFSET -2.542530 -6.985550 0.000000
				CHANNELS 3 Zrotation Yrotation Xrotation
				JOINT RightFoot
				{
					OFFSET -2.568260 -7.056230 0.000000
					CHANNELS 3 Zrotation Yrotation Xrotation
					JOINT RightToeBase
					{
						OFFSET -0.164730 -0.452590 2.363150
						CHANNELS 3 Zrotation Yrotation Xrotation
						End Site
						{
							OFFSET 0.000000 0.000000 0.000000
						}
					}
				}
			}
		}
	}
	JOINT LowerBack
	{
		OFFSET 0.000000 0.000000 0.000000
		CHANNELS 3 Zrotation Yrotation Xrotation
		JOINT Spine
		{
			OFFSET 0.028270 2.035590 -0.193380
			CHANNELS 3 Zrotation Yrotation Xrotation
			JOINT Spine1
			{
				OFFSET 0.056720 2.048850 -0.042750
				CHANNELS 3 Zrotation Yrotation Xrotation
				JOINT Neck
				{
					OFFSET 0.000000 0.000000 0.000000
					CHANNELS 3 Zrotation Yrotation Xrotation
					JOINT Neck1
					{
						OFFSET -0.054170 1.746240 0.172020
						CHANNELS 3 Zrotation Yrotation Xrotation
						JOINT Head
						{
							OFFSET 0.104070 1.761360 -0.123970
							CHANNELS 3 Zrotation Yrotation Xrotation
							End Site
							{
								OFFSET 0.000000 0.000000 0.000000
							}
						}
					}
				}
				JOINT LeftShoulder
				{
					OFFSET 0.000000 0.000000 0.000000
					CHANNELS 3 Zrotation Yrotation Xrotation
					JOINT LeftArm
					{
						OFFSET 3.362410 1.200890 -0.311210
						CHANNELS 3 Zrotation Yrotation Xrotation
						JOINT LeftForeArm
						{
							OFFSET 4.983000 -0.000000 -0.000000
							CHANNELS 3 Zrotation Yrotation Xrotation
							JOINT LeftHand
							{
								OFFSET 3.483560 -0.000000 -0.000000
								CHANNELS 3 Zrotation Yrotation Xrotation
								JOINT LeftFingerBase
								{
									OFFSET 0.000000 0.000000 0.000000
									CHANNELS 3 Zrotation Yrotation Xrotation
									JOINT LeftHandIndex1
									{
										OFFSET 0.715260 -0.000000 -0.000000
										CHANNELS 3 Zrotation Yrotation Xrotation
										End Site
										{
											OFFSET 0.000000 0.000000 0.000000
										}
									}
								}
								JOINT LThumb
								{
									OFFSET 0.000000 0.000000 0.000000
									CHANNELS 3 Zrotation Yrotation Xrotation
									End Site
									{
										OFFSET 0.000000 0.000000 0.000000
									}
								}
							}
						}
					}
				}
				JOINT RightShoulder
				{
					OFFSET 0.000000 0.000000 0.000000
					CHANNELS 3 Zrotation Yrotation Xrotation
					JOINT RightArm
					{
						OFFSET -3.136600 1.374050 -0.404650
						CHANNELS 3 Zrotation Yrotation Xrotation
						JOINT RightForeArm
						{
							OFFSET -5.241900 -0.000000 -0.000000
							CHANNELS 3 Zrotation Yrotation Xrotation
							JOINT RightHand
							{
								OFFSET -3.444170 -0.000000 -0.000000
								CHANNELS 3 Zrotation Yrotation Xrotation
								JOINT RightFingerBase
								{
									OFFSET 0.000000 0.000000 0.000000
									CHANNELS 3 Zrotation Yrotation Xrotation
									JOINT RightHandIndex1
									{
										OFFSET -0.622530 -0.000000 -0.000000
										CHANNELS 3 Zrotation Yrotation Xrotation
										End Site
										{
											OFFSET 0.000000 0.000000 0.000000
										}
									}
								}
								JOINT RThumb
								{
									OFFSET 0.000000 0.000000 0.000000
									CHANNELS 3 Zrotation Yrotation Xrotation
									End Site
									{
										OFFSET 0.000000 0.000000 0.000000
									}
								}
							}
						}
					}
				}
			}
		}
	}
}
MOTION
Frames: 5
Frame Time: 0.008333
-26.941724 15.793126 -3.959768 165.525540 55.866824 -176.276464 2.510672 -3.664622 -4.790801 -13.282448 7.072133 -44.410798 6.860043 17.184988 51.049315 -0.482298 4.534385 -7.316960 1.689200 -8.186200 -23.281200 -4.096352 2.308794 -2.266874 -5.969557 12.799961 -48.490235 -9.619521 -19.214727 60.756741 -0.592807 -3.751027 -18.493474 -0.150100 2.496600 -6.880300 9.054721 -3.844450 29.354747 0.528243 -1.252308 1.102796 0.315553 -0.197496 -1.346931 -12.555968 -16.563823 -21.078528 19.949200 -17.439533 3.072808 7.291500 -6.378100 13.526700 -9.114906 -1.111999 0.190812 -81.285631 -29.292475 106.553701 44.645821 -50.462903 -19.306452 0.382911 0.301193 -2.527798 28.828206 -11.028244 -6.108400 -7.125000 0.000000 0.000000 0.898200 17.066500 -0.595100 10.296278 5.920727 0.857329 56.861766 7.053974 52.854940 -26.650058 38.140003 -10.078404 -0.662325 1.870356 -72.333720 6.851685 -37.380360 -3.319400 7.125000 0.000000 0.000000 48.115900 -62.081700 -22.744000 
-26.962484 15.776055 -4.109092 165.534025 56.406557 -176.426648 2.514417 -3.663492 -4.806035 -12.781698 6.233573 -44.354734 6.777109 17.161842 50.763023 -0.661116 5.234480 -6.417959 1.686800 -8.180800 -23.264700 -4.092555 2.319123 -2.271587 -6.277360 12.915054 -48.121228 -9.552482 -19.158651 60.526058 -0.609026 -3.569576 -18.485014 -0.197400 2.860900 -7.891800 8.814598 -3.844249 29.532810 0.550796 -1.271347 1.137862 0.550109 -0.217808 -1.273901 -12.684312 -16.546089 -21.574027 19.716322 -17.318562 3.303368 7.225700 -6.317700 13.706600 -9.120102 -1.112261 0.195978 -81.500461 -29.448669 106.411543 44.474123 -50.377919 -19.178594 0.383157 0.305159 -2.490416 28.665818 -10.997342 -6.053400 -7.125000 0.000000 0.000000 0.787200 17.115600 -0.520700 10.324494 5.929772 0.860734 56.434175 7.219434 53.424208 -26.649515 38.082842 -10.028789 -0.661129 1.884224 -72.495578 6.173820 -36.963999 -2.855000 7.125000 0.000000 0.000000 46.899500 -61.959700 -21.889900 
-26.988407 15.759616 -4.273274 165.400439 57.110424 -176.666385 2.513460 -3.669233 -4.815598 -12.501167 5.507815 -44.238221 6.823639 17.249382 50.970320 -0.630360 5.091047 -6.190422 1.655500 -8.108200 -23.043200 -4.085786 2.328752 -2.275978 -6.754463 13.156825 -47.807278 -9.463099 -19.096693 60.229628 -0.612536 -3.424152 -18.356244 -0.262200 3.294000 -9.098400 8.509751 -3.715068 29.574471 0.525966 -1.177167 1.192885 0.659120 -0.173918 -1.114333 -12.880556 -16.587428 -22.010366 19.670824 -17.261023 3.438869 7.261200 -6.276600 13.877900 -9.138292 -1.092394 0.210078 -81.676228 -29.684023 106.459534 44.352790 -50.317838 -19.102224 0.382986 0.315287 -2.542985 29.048301 -11.229121 -6.279900 -7.125000 0.000000 0.000000 1.032400 16.794300 -0.690200 10.333107 5.938944 0.873665 56.135413 7.389976 53.787536 -26.606729 37.998866 -9.952616 -0.643531 1.899576 -72.562863 5.279020 -36.382565 -2.253400 7.125000 0.000000 0.000000 45.248700 -61.756700 -20.720300 
-27.013172 15.744125 -4.446309 165.293841 57.929961 -177.024882 2.503031 -3.669248 -4.799041 -12.508507 5.265911 -43.895620 6.980545 17.393396 51.510407 -0.852353 6.078740 -6.251308 1.184200 -6.906000 -19.437300 -4.096052 2.338979 -2.275929 -7.237877 13.639790 -47.292372 -9.350961 -19.043461 59.869354 -0.614528 -3.201306 -18.130527 -0.239100 3.147100 -8.688500 8.242028 -3.479053 29.766310 0.460296 -0.936601 1.190346 0.577166 -0.052383 -1.212006 -13.021334 -16.598648 -22.008262 19.649781 -17.231887 3.507252 7.297600 -6.272300 13.932900 -9.143246 -1.083004 0.211632 -81.910822 -29.589537 106.731847 44.025503 -50.160382 -18.897961 0.387523 0.324549 -2.483547 29.733883 -11.927318 -6.845500 -7.125000 0.000000 0.000000 1.439500 15.900900 -0.990300 10.321770 5.955129 0.873255 56.206654 7.204051 53.700265 -26.425079 37.865162 -9.864611 -0.631770 1.905107 -72.472880 4.993096 -36.444372 -2.076200 7.125000 0.000000 0.000000 45.038600 -61.866900 -20.718700 
-27.035723 15.726105 -4.629881 165.112878 58.744751 -177.374580 2.487201 -3.678320 -4.758586 -12.873613 5.361819 -43.588922 7.164046 17.552057 52.231115 -0.427042 4.336532 -7.455586 1.077300 -6.597400 -18.528100 -4.088288 2.343165 -2.265956 -7.791610 14.037769 -46.814845 -9.244458 -18.977443 59.515540 -0.642144 -2.807316 -18.062154 -0.228600 3.077500 -8.494500 8.094423 -3.254534 29.882831 0.346256 -0.731764 1.101563 0.247402 0.059501 -1.518711 -13.023990 -16.551273 -21.803954 19.540753 -17.195428 3.593143 7.273000 -6.275500 13.933800 -9.145996 -1.088846 0.187399 -82.139164 -29.202885 107.075021 43.510450 -49.893218 -18.548481 0.381474 0.321530 -2.487167 29.887644 -12.178452 -7.025300 -7.125000 0.000000 0.000000 1.525900 15.598400 -1.059800 10.283045 5.983418 0.855419 56.567670 6.732638 53.641220 -26.233993 37.745647 -9.764987 -0.616741 1.903034 -72.533894 4.797879 -36.462189 -1.953700 7.125000 0.000000 0.000000 44.848300 -61.915700 -20.662500 
